<?xml version="1.0" encoding="utf-8"?>
<!-- Generator: Adobe Illustrator 21.1.0, SVG Export Plug-In . SVG Version: 6.00 Build 0)  -->
<svg version="1.1" id="Layer_1" xmlns="http://www.w3.org/2000/svg" xmlns:xlink="http://www.w3.org/1999/xlink" x="0px" y="0px"
	 viewBox="0 0 400 163.2" style="enable-background:new 0 0 400 163.2;" xml:space="preserve">
<style type="text/css">
	.st0{fill:#EC1C24;}
</style>
<g>
	<g>
		<g>
			<g>
				<path class="st0" d="M78.8,44.1H34.9l-31,31V119l31,31h43.9l31-31V75.1L78.8,44.1z M101.7,115.5l-26.2,26.2H38.3l-26.2-26.2
					V78.4l26.2-26.2h37.1l26.2,26.2V115.5z"/>
			</g>
			<path id="AD_3_" class="st0" d="M75.9,129.6l17.7-17.7V82L75.9,64.4H61v65.1L75.9,129.6L75.9,129.6z M69.1,72.5h2.7l13.5,13.5
				v21.7l-13.5,13.5h-2.7V72.5L69.1,72.5z M37.8,64.4L20.2,82v29.8l8.1,8.1V98.9h16.3v30.5h8.1V64.3L37.8,64.4L37.8,64.4z
				 M44.7,72.5v18.3H28.4v-4.7l13.5-13.5L44.7,72.5L44.7,72.5z"/>
		</g>
		<path id="UP_3_" class="st0" d="M24.3,45.4v-4.1c0-8.8,8.8-17.7,19-17.7h27.2c10.1,0,19,8.8,19,17.7v4.1l8.1,8.1V41.3
			c0-12.9-12.9-25.8-27.2-25.8H43.3c-14.2,0-27.2,12.9-27.2,25.8v12.3L24.3,45.4z"/>
	</g>
	<g>
		<path class="st0" d="M253.2,84.9c-8.6,0-15.5,7-15.5,15.5s7,15.5,15.5,15.5c8.6,0,15.5-7,15.5-15.5S261.8,84.9,253.2,84.9z
			 M261.1,100.4c0,4.3-3.5,7.9-7.9,7.9c-4.3,0-7.9-3.5-7.9-7.9s3.5-7.9,7.9-7.9C257.6,92.5,261.1,96,261.1,100.4z"/>
		<path class="st0" d="M292.7,106.2c-1.5,1.3-3.3,2-5.3,2c-4.3,0-7.9-3.5-7.9-7.9s3.5-7.9,7.9-7.9c2.2,0,4.3,0.9,5.8,2.5l0.8,0.9
			l5.5-5.3l-0.8-0.9c-2.9-3.1-7.1-4.9-11.3-4.9c-8.6,0-15.5,7-15.5,15.5s7,15.5,15.5,15.5c3.7,0,7.3-1.4,10.2-3.8l0.9-0.8l-4.9-5.9
			L292.7,106.2z"/>
		<path class="st0" d="M153.9,72.6h-8.1l-14.1,42.9h8l2.6-8h14.1l2.4,8h8L153.9,72.6z M154.2,99.9h-9.3l4.8-14.8L154.2,99.9z"/>
		<polygon class="st0" points="321.5,96.9 332.2,84.6 321.3,84.6 312.9,94.2 312.9,72.6 304.7,72.6 304.7,115.5 312.9,115.5 
			312.9,106.7 315.9,103.3 324.4,115.5 334.4,115.5 		"/>
		<polygon class="st0" points="216,107.4 216,72.6 207.8,72.6 207.8,115.5 234.4,115.5 234.4,107.4 		"/>
		<path class="st0" d="M193.2,72.6v14.3c-2.3-1.3-4.9-2-7.6-2c-8.6,0-15.5,7-15.5,15.5s7,15.5,15.5,15.5c2.7,0,5.3-0.7,7.6-2v1.6
			h8.2V72.6H193.2z M185.6,108.2c-4.3,0-7.9-3.5-7.9-7.9c0-4.3,3.5-7.9,7.9-7.9c4.3,0,7.9,3.5,7.9,7.9
			C193.5,104.7,190,108.2,185.6,108.2z"/>
		<g>
			<path class="st0" d="M328.1,75c0-0.4,0.1-0.9,0.3-1.2c0.2-0.4,0.5-0.7,0.9-0.9s0.8-0.3,1.2-0.3c0.4,0,0.8,0.1,1.2,0.3
				c0.4,0.2,0.6,0.5,0.8,0.9c0.2,0.4,0.3,0.8,0.3,1.2c0,0.4-0.1,0.8-0.3,1.2c-0.2,0.4-0.5,0.7-0.8,0.9s-0.8,0.3-1.2,0.3
				c-0.4,0-0.8-0.1-1.2-0.3s-0.6-0.5-0.8-0.9C328.2,75.9,328.1,75.5,328.1,75z M328.5,75c0,0.4,0.1,0.7,0.3,1
				c0.2,0.3,0.4,0.6,0.7,0.8c0.3,0.2,0.6,0.3,1,0.3c0.4,0,0.7-0.1,1-0.3c0.3-0.2,0.5-0.4,0.7-0.8c0.2-0.3,0.3-0.7,0.3-1
				c0-0.4-0.1-0.7-0.3-1c-0.2-0.3-0.4-0.6-0.7-0.7c-0.3-0.2-0.6-0.3-1-0.3c-0.4,0-0.7,0.1-1,0.3c-0.3,0.2-0.5,0.4-0.7,0.8
				C328.6,74.3,328.5,74.7,328.5,75z M330,75.3v1.1h-0.5v-2.8h0.9c0.3,0,0.6,0.1,0.8,0.2c0.2,0.1,0.3,0.4,0.3,0.6
				c0,0.3-0.1,0.5-0.4,0.6c0.3,0.1,0.4,0.3,0.4,0.7v0.2c0,0.2,0,0.3,0.1,0.4v0.1H331c0-0.1,0-0.2,0-0.4c0-0.2,0-0.3,0-0.4
				c0-0.2-0.2-0.3-0.4-0.3H330z M330,74.9h0.5c0.2,0,0.3,0,0.4-0.1c0.1-0.1,0.1-0.2,0.1-0.3c0-0.2,0-0.3-0.1-0.3
				c-0.1-0.1-0.2-0.1-0.5-0.1H330V74.9z"/>
		</g>
	</g>
</g>
<g>
	<path class="st0" d="M108,16.5h-0.5v1.6h-0.3v-1.6h-0.5v-0.3h1.4V16.5z M109.8,16.7l-0.5,1.4h-0.2l-0.5-1.4v1.4h-0.3v-1.9h0.4
		l0.5,1.4l0.5-1.4h0.4v1.9h-0.3V16.7z"/>
</g>
</svg>
